<svg xmlns="http://www.w3.org/2000/svg" viewBox="0 0 63.5 63.5"><defs><style>.cls-1{fill:none;}.cls-2{fill:#fff;}</style></defs><title>ico-user</title><g id="Layer_2" data-name="Layer 2"><circle cx="31.5" cy="31.5" r="30.5"/></g><g id="Layer_1" data-name="Layer 1"><ellipse class="cls-1" cx="31.28" cy="28.54" rx="12.09" ry="12.06"/><path class="cls-1" d="M31.28,44a22.56,22.56,0,0,0-18.36,9.44,28.68,28.68,0,0,0,37.08.5A22.57,22.57,0,0,0,31.28,44Z"/><path class="cls-1" d="M31.75,3a28.73,28.73,0,0,0-21,48.33A26,26,0,0,1,23.92,42a15.43,15.43,0,1,1,14.88-.08,26,26,0,0,1,13.68,9.7A28.73,28.73,0,0,0,31.75,3Z"/><path class="cls-2" d="M31.75,0A31.73,31.73,0,0,0,9,53.92Q10.13,55,11.32,56a31.66,31.66,0,0,0,40.2.54,32,32,0,0,0,2.62-2.33A31.73,31.73,0,0,0,31.75,0Zm0,60.5a28.62,28.62,0,0,1-18.83-7.05,22.59,22.59,0,0,1,37.08.5A28.62,28.62,0,0,1,31.75,60.5Zm-12.56-32A12.09,12.09,0,1,1,31.28,40.6,12.08,12.08,0,0,1,19.19,28.54Zm33.29,23.1a26,26,0,0,0-13.68-9.7A15.42,15.42,0,1,0,23.92,42a26,26,0,0,0-13.19,9.31,28.75,28.75,0,1,1,41.76.31Z"/></g></svg>