<svg id="Layer_1" data-name="Layer 1" xmlns="http://www.w3.org/2000/svg" viewBox="0 0 63.5 63.5"><defs><style>.cls-1{fill:#fff;}</style></defs><title>ico-menu</title><circle cx="31.5" cy="31.5" r="30.5"/><path class="cls-1" d="M31.75,63.5A31.75,31.75,0,1,1,63.5,31.75,31.79,31.79,0,0,1,31.75,63.5Zm0-60.5A28.75,28.75,0,1,0,60.5,31.75,28.78,28.78,0,0,0,31.75,3Z"/><path class="cls-1" d="M46.09,42.91H17.59A1.59,1.59,0,0,1,16,41.31v-.62a1.59,1.59,0,0,1,1.59-1.59h28.5a1.59,1.59,0,0,1,1.59,1.59v.63A1.59,1.59,0,0,1,46.09,42.91Zm0-9.53H17.59A1.59,1.59,0,0,1,16,31.78v-.62a1.59,1.59,0,0,1,1.59-1.59h28.5a1.59,1.59,0,0,1,1.59,1.59v.63A1.59,1.59,0,0,1,46.09,33.38Zm0-9.53H17.6a1.6,1.6,0,0,1-1.6-1.6V21.6A1.6,1.6,0,0,1,17.6,20H46.09a1.6,1.6,0,0,1,1.6,1.6v.64A1.6,1.6,0,0,1,46.09,23.84Z"/></svg>