<svg xmlns="http://www.w3.org/2000/svg" xmlns:xlink="http://www.w3.org/1999/xlink" preserveAspectRatio="xMidYMid" width="35" height="27" viewBox="0 0 35 27">
  <defs>
    <style>
      .cls-1 {
        fill: #fff;
        fill-rule: evenodd;
      }
    </style>
  </defs>
  <path d="M29.372,27.000 L5.629,27.000 C2.523,27.000 0.006,24.456 0.006,21.318 L0.006,9.472 C0.006,6.333 2.523,3.790 5.629,3.790 L13.284,3.790 L15.108,1.566 C15.817,0.701 17.293,0.000 18.406,0.000 L24.250,0.000 C25.362,0.000 26.838,0.701 27.548,1.566 L29.372,3.790 C32.478,3.790 34.995,6.333 34.995,9.472 L34.995,21.318 C34.995,24.456 32.478,27.000 29.372,27.000 ZM12.195,6.210 L8.170,6.210 L8.170,8.787 L12.195,8.787 L12.195,6.210 ZM21.327,6.767 C16.611,6.767 12.788,10.629 12.788,15.395 C12.788,20.160 16.611,24.023 21.327,24.023 C26.044,24.023 29.867,20.160 29.867,15.395 C29.867,10.629 26.044,6.767 21.327,6.767 ZM21.327,22.173 C17.627,22.173 14.618,19.133 14.618,15.395 C14.618,11.656 17.627,8.616 21.327,8.616 C25.027,8.616 28.037,11.656 28.037,15.395 C28.037,19.133 25.027,22.173 21.327,22.173 ZM21.327,10.725 C18.779,10.725 16.705,12.820 16.705,15.395 C16.705,17.969 18.779,20.064 21.327,20.064 C23.876,20.064 25.949,17.969 25.949,15.395 C25.949,12.820 23.876,10.725 21.327,10.725 ZM7.030,2.008 C7.030,1.515 7.427,1.114 7.915,1.114 L10.997,1.114 C11.486,1.114 11.882,1.515 11.882,2.008 L11.882,3.032 L7.030,3.032 L7.030,2.008 Z" class="cls-1"/>
</svg>
